<?xml version="1.0" standalone="no"?>
<!DOCTYPE svg PUBLIC "-//W3C//DTD SVG 20010904//EN"
 "http://www.w3.org/TR/2001/REC-SVG-20010904/DTD/svg10.dtd">
<svg version="1.0" xmlns="http://www.w3.org/2000/svg"
 width="1536.000000pt" height="1024.000000pt" viewBox="0 0 1536.000000 1024.000000"
 preserveAspectRatio="xMidYMid meet">

<g transform="translate(0.000000,1024.000000) scale(0.100000,-0.100000)"
fill="#000000" stroke="none">
<path d="M0 5120 l0 -5120 7680 0 7680 0 0 5120 0 5120 -7680 0 -7680 0 0
-5120z m3582 1424 c281 -53 538 -211 704 -431 294 -391 300 -933 13 -1323 -26
-36 -57 -74 -68 -84 -12 -11 -21 -22 -21 -26 0 -4 76 -94 170 -201 l169 -194
-272 -3 -272 -3 -63 69 -62 69 -84 -34 c-454 -182 -953 -86 -1287 247 -208
207 -319 481 -319 785 0 475 274 881 718 1064 204 84 449 108 674 65z m3845
-55 c96 -36 153 -119 153 -224 0 -198 -235 -298 -379 -162 -92 88 -95 245 -5
332 61 57 160 81 231 54z m743 -611 c0 -318 3 -578 8 -577 5 0 393 441 474
539 16 20 26 20 258 18 l241 -3 -272 -299 c-221 -243 -270 -302 -262 -315 9
-14 170 -228 492 -651 l103 -135 -224 -3 c-122 -1 -232 0 -243 3 -12 3 -100
116 -214 276 l-194 271 -83 -83 -84 -84 0 -192 0 -193 -185 0 -185 0 0 1003 0
1002 185 0 185 0 0 -577z m1945 -22 c156 -53 272 -138 354 -262 78 -116 103
-205 109 -389 l4 -150 -518 0 -519 -1 4 -29 c11 -100 92 -214 185 -263 46 -25
61 -27 161 -27 99 0 116 3 168 27 31 15 81 50 110 77 l53 50 157 -61 c86 -33
157 -65 157 -70 0 -21 -64 -100 -131 -162 -83 -76 -193 -135 -304 -162 -97
-24 -316 -24 -405 0 -159 43 -322 151 -400 266 -110 162 -145 290 -137 500 5
142 23 224 72 320 86 169 256 302 450 352 110 28 323 20 430 -16z m1498 18
c200 -45 375 -178 457 -349 46 -97 61 -168 67 -325 l6 -145 -518 0 -517 0 6
-40 c10 -65 62 -160 112 -204 64 -56 136 -81 233 -81 119 0 210 37 290 120
l38 39 154 -60 c84 -33 156 -62 158 -65 8 -8 -70 -113 -119 -158 -147 -138
-356 -208 -574 -192 -453 31 -735 391 -677 862 27 221 125 386 294 497 91 60
143 83 232 102 86 19 271 18 358 -1z m1497 -183 l0 -188 -113 -5 c-99 -4 -122
-8 -170 -31 -69 -34 -111 -81 -133 -149 -15 -46 -18 -109 -22 -460 l-4 -408
-196 0 -197 0 0 705 0 705 178 0 177 0 0 -112 1 -113 23 49 c42 84 122 151
219 181 23 8 86 14 140 14 l97 1 0 -189z m-8012 -163 c56 -183 121 -398 146
-478 l43 -145 28 90 c63 208 256 822 265 843 10 22 11 22 187 20 l177 -3 132
-410 c73 -225 143 -443 156 -483 l23 -73 59 203 c33 112 98 329 145 483 l86
280 202 0 c111 0 204 -3 208 -6 3 -4 -12 -60 -35 -125 -22 -66 -130 -378 -239
-694 l-199 -575 -183 -3 c-101 -2 -198 0 -216 3 l-32 6 -130 392 c-71 216
-132 407 -136 424 -3 18 -10 35 -14 37 -3 2 -62 -167 -130 -377 -68 -210 -132
-406 -143 -434 l-19 -53 -212 0 -212 0 -233 693 c-128 380 -232 695 -232 699
0 11 54 15 236 16 l170 2 102 -332z m2430 326 l22 -6 0 -699 0 -699 -190 0
-190 0 0 705 0 705 168 0 c92 0 177 -3 190 -6z"/>
<path d="M3252 6130 c-240 -33 -438 -181 -542 -405 -52 -111 -65 -172 -64
-300 1 -167 47 -304 147 -434 201 -261 589 -341 896 -186 137 69 249 186 317
332 46 98 64 180 64 299 0 199 -59 343 -200 484 -64 65 -105 96 -167 128 -137
71 -307 102 -451 82z"/>
<path d="M9755 5573 c-28 -10 -65 -29 -83 -41 -52 -38 -108 -128 -126 -204
l-6 -28 335 0 c384 0 358 -9 305 98 -58 114 -162 181 -298 188 -58 4 -90 0
-127 -13z"/>
<path d="M11336 5579 c-85 -21 -171 -102 -206 -195 -34 -92 -62 -84 310 -84
267 0 330 3 330 13 0 39 -37 114 -81 161 -63 69 -143 106 -242 111 -40 3 -90
0 -111 -6z"/>
</g>
</svg>
